<mxfile host="app.diagrams.net" agent="Mozilla/5.0 (Windows NT 10.0; Win64; x64) AppleWebKit/537.36 (KHTML, like Gecko) Chrome/128.0.0.0 Safari/537.36" version="24.7.13">
  <diagram name="第 1 页" id="4FSL3MRzxva0yucp-lYa">
    <mxGraphModel dx="1434" dy="746" grid="1" gridSize="10" guides="1" tooltips="1" connect="1" arrows="1" fold="1" page="1" pageScale="1" pageWidth="4681" pageHeight="3300" math="0" shadow="0">
      <root>
        <mxCell id="0" />
        <mxCell id="1" parent="0" />
        <mxCell id="Age2WlZFDnUI9IWk4CiQ-1" value="获取是否语音封禁状态" style="rounded=0;whiteSpace=wrap;html=1;" vertex="1" parent="1">
          <mxGeometry x="260" y="80" width="170" height="40" as="geometry" />
        </mxCell>
        <mxCell id="Age2WlZFDnUI9IWk4CiQ-2" value="获取封禁状态" style="rounded=0;whiteSpace=wrap;html=1;" vertex="1" parent="1">
          <mxGeometry x="260" y="140" width="170" height="40" as="geometry" />
        </mxCell>
        <mxCell id="Age2WlZFDnUI9IWk4CiQ-3" value="获取被举报玩家" style="rounded=0;whiteSpace=wrap;html=1;" vertex="1" parent="1">
          <mxGeometry x="260" y="200" width="170" height="40" as="geometry" />
        </mxCell>
        <mxCell id="Age2WlZFDnUI9IWk4CiQ-4" value="拉取当前封禁类型未处理的所有举报玩家的数据（3d内）" style="rounded=0;whiteSpace=wrap;html=1;" vertex="1" parent="1">
          <mxGeometry x="260" y="260" width="170" height="40" as="geometry" />
        </mxCell>
      </root>
    </mxGraphModel>
  </diagram>
</mxfile>
